<svg width="198" height="198" viewBox="0 0 198 198" fill="none" xmlns="http://www.w3.org/2000/svg">
<path d="M99.2815 0.0303955H98.8317C44.4151 0.0303955 0.301758 44.1568 0.301758 98.5894V99.0393C0.301758 153.472 44.4151 197.598 98.8317 197.598H99.2815C153.698 197.598 197.811 153.472 197.811 99.0393V98.5894C197.811 44.1568 153.698 0.0303955 99.2815 0.0303955Z" fill="#EA4C89"/>
<path d="M161.019 101.386C161.033 101.171 161.04 100.95 161.047 100.728L161.165 97.9803L161.061 97.9526C160.86 83.4308 155.684 69.6703 146.349 58.6785L146.46 58.5609L143.519 55.536C131.721 43.416 115.923 36.7435 99.0254 36.7435C90.3481 36.7435 82.003 38.4947 74.1629 41.9348L74.1006 41.8863L71.5542 43.1461C68.1842 44.8142 65.0012 46.7662 62.0326 48.9742C60.0536 50.4485 58.1714 52.0267 56.3861 53.7156C55.7218 54.3455 55.0783 54.9892 54.4417 55.6468C45.7159 64.6659 39.7926 76.2321 37.7513 88.8851L37.0939 92.9828L37.2392 93.0174C37.0593 94.9417 36.9625 96.8866 36.9625 98.8247C36.9625 115.278 43.5223 131.052 55.0714 142.646L55.0229 142.736L57.6109 145.055C69.0077 155.272 83.7121 160.906 99.0186 160.906C100.105 160.906 101.184 160.878 102.257 160.823C109.786 160.442 117.072 158.712 123.95 155.687C123.95 155.687 123.957 155.687 123.964 155.687L126.656 154.503V154.42C146.689 144.418 160.064 123.978 161.012 101.559C161.012 101.552 161.012 101.545 161.012 101.538C161.012 101.531 161.012 101.517 161.012 101.51V101.414L161.019 101.386ZM151.927 104.777C151.899 104.999 151.871 105.22 151.844 105.442C151.795 105.823 151.747 106.203 151.691 106.577C151.657 106.819 151.615 107.062 151.574 107.304C151.518 107.657 151.456 108.01 151.394 108.363C151.346 108.619 151.297 108.868 151.242 109.124C151.173 109.463 151.11 109.803 151.034 110.135C150.979 110.391 150.916 110.647 150.854 110.903C150.778 111.235 150.695 111.561 150.612 111.886C150.543 112.142 150.474 112.405 150.404 112.661C150.314 112.98 150.225 113.305 150.135 113.623C150.058 113.88 149.982 114.143 149.899 114.399C149.802 114.717 149.699 115.029 149.602 115.347C149.519 115.603 149.429 115.859 149.339 116.115C149.228 116.427 149.117 116.738 149.007 117.05C148.917 117.299 148.82 117.555 148.723 117.804C148.605 118.116 148.481 118.42 148.356 118.732C148.259 118.981 148.156 119.223 148.052 119.472C147.92 119.777 147.789 120.081 147.65 120.386C147.54 120.628 147.436 120.871 147.325 121.106C147.18 121.41 147.035 121.715 146.889 122.02C146.778 122.255 146.661 122.483 146.543 122.719C146.391 123.023 146.225 123.328 146.066 123.632C145.948 123.854 145.83 124.075 145.713 124.297C145.54 124.608 145.36 124.92 145.18 125.231C145.062 125.439 144.945 125.647 144.827 125.847C144.626 126.186 144.419 126.526 144.211 126.858C144.107 127.024 144.004 127.197 143.9 127.37C143.609 127.827 143.312 128.277 143.007 128.727C142.98 128.775 142.945 128.817 142.917 128.865C142.578 129.357 142.232 129.841 141.879 130.326C141.776 130.464 141.665 130.603 141.561 130.741C141.312 131.08 141.056 131.412 140.8 131.745C140.661 131.925 140.516 132.098 140.371 132.278C140.142 132.561 139.907 132.852 139.672 133.129C139.513 133.316 139.347 133.503 139.188 133.69C138.959 133.953 138.731 134.216 138.496 134.479C138.323 134.673 138.15 134.859 137.977 135.046C137.748 135.296 137.513 135.545 137.278 135.794C137.098 135.981 136.911 136.168 136.724 136.355C136.489 136.59 136.254 136.832 136.011 137.067C135.818 137.254 135.631 137.434 135.437 137.621C135.195 137.85 134.953 138.078 134.71 138.3C134.51 138.48 134.309 138.659 134.108 138.839C133.859 139.061 133.61 139.276 133.354 139.49C133.147 139.663 132.946 139.836 132.731 140.009C132.475 140.217 132.219 140.431 131.956 140.632C131.749 140.798 131.534 140.964 131.32 141.131C131.057 141.331 130.787 141.532 130.524 141.733C130.31 141.892 130.088 142.051 129.874 142.21C129.604 142.404 129.327 142.598 129.05 142.785C128.829 142.937 128.614 143.089 128.393 143.235C128.109 143.422 127.818 143.609 127.535 143.789C127.313 143.927 127.092 144.072 126.87 144.211C126.663 144.342 126.448 144.46 126.234 144.591C125.23 131.495 122.296 117.936 117.64 104.895C129.175 102.299 140.883 102.216 151.941 104.681C151.941 104.715 151.941 104.75 151.934 104.777H151.927ZM114.401 96.6029C112.837 92.8997 111.163 89.2796 109.364 85.7772C120.947 80.5098 131.458 73.4288 140.177 65.0327C147.346 73.7472 151.519 84.4136 152.162 95.7169C139.921 93.2596 127.037 93.5642 114.394 96.6029H114.401ZM47.342 85.9364C47.5427 85.1266 47.7641 84.3167 48.0063 83.5207C48.0479 83.3754 48.0963 83.2231 48.1378 83.0777C48.38 82.2956 48.636 81.5203 48.9128 80.752C48.9336 80.6966 48.9474 80.6482 48.9682 80.5928C49.0028 80.4959 49.0374 80.399 49.072 80.3021C49.3557 79.5407 49.6532 78.7932 49.9646 78.0456C50.0131 77.9349 50.0546 77.831 50.103 77.7203C50.1099 77.6995 50.1238 77.6788 50.1307 77.6511C50.4559 76.8966 50.8019 76.1421 51.1687 75.4015C51.224 75.2838 51.2863 75.1662 51.3416 75.0416C51.7153 74.294 52.1028 73.5603 52.5111 72.8335C52.5734 72.7159 52.6356 72.6051 52.7048 72.4944C53.1062 71.7883 53.5283 71.0892 53.9642 70.3971C54.0127 70.3209 54.0611 70.2448 54.1095 70.1687C54.1372 70.1202 54.1718 70.0717 54.2064 70.0233C54.6493 69.3311 55.1129 68.6528 55.5834 67.9883C55.6665 67.8706 55.7564 67.746 55.8395 67.6284C56.3238 66.957 56.829 66.2925 57.348 65.6418C57.431 65.538 57.521 65.4342 57.604 65.3303C58.1299 64.6797 58.6696 64.036 59.2301 63.4061C59.2993 63.323 59.3754 63.2469 59.4446 63.1638C60.019 62.5201 60.6141 61.8971 61.223 61.2811C61.2922 61.2119 61.3545 61.1496 61.4237 61.0804C62.0188 60.492 62.6208 59.9106 63.2436 59.3499C63.2989 59.3015 63.3543 59.2461 63.4096 59.1977C63.4442 59.17 63.4719 59.1423 63.5065 59.1146C64.1293 58.5609 64.7659 58.021 65.4094 57.488C65.5132 57.4049 65.617 57.3149 65.7208 57.2319C66.3782 56.7058 67.0425 56.2005 67.7275 55.7022C67.8452 55.6191 67.9628 55.5291 68.0874 55.4461C68.7724 54.9546 69.4713 54.477 70.1841 54.0202C70.2948 53.951 70.4124 53.8748 70.5231 53.8056C71.2566 53.3419 71.997 52.8919 72.7582 52.4628C72.8136 52.4351 72.8689 52.4005 72.9243 52.3728C81.83 60.1252 89.9883 70.0233 96.7973 81.3265C80.3699 87.1062 63.0221 88.7813 47.2936 86.1095C47.3074 86.0472 47.3213 85.9918 47.3351 85.9295L47.342 85.9364ZM101.593 45.6172C101.876 45.631 102.16 45.6587 102.444 45.6725C103.018 45.7071 103.586 45.7487 104.153 45.7971C104.485 45.8317 104.817 45.8733 105.149 45.9079C105.661 45.9632 106.174 46.0255 106.686 46.1017C107.038 46.1501 107.384 46.2124 107.73 46.2678C108.222 46.3509 108.706 46.4339 109.191 46.5239C109.543 46.5931 109.896 46.6624 110.249 46.7385C110.727 46.8423 111.204 46.9461 111.675 47.0638C112.028 47.1469 112.374 47.2369 112.72 47.3268C113.19 47.4514 113.661 47.5829 114.131 47.7214C114.47 47.8183 114.809 47.9221 115.148 48.0259C115.626 48.1782 116.103 48.3374 116.581 48.5035C116.899 48.6143 117.217 48.7181 117.536 48.8358C118.048 49.0296 118.56 49.2303 119.065 49.438C119.335 49.5487 119.605 49.6456 119.868 49.7633C120.594 50.0748 121.314 50.4001 122.027 50.7393C122.096 50.7739 122.172 50.8085 122.241 50.8431C122.961 51.1892 123.674 51.556 124.372 51.9367C124.628 52.0752 124.878 52.2205 125.127 52.3659C125.604 52.6358 126.082 52.9058 126.559 53.1965C126.85 53.3695 127.126 53.5564 127.41 53.7364C127.839 54.0063 128.261 54.2763 128.683 54.5601C128.981 54.7608 129.272 54.9685 129.562 55.1692C129.964 55.453 130.365 55.7368 130.759 56.0344C131.05 56.249 131.334 56.4705 131.624 56.692C132.012 56.9965 132.399 57.3011 132.78 57.6126C133.057 57.841 133.333 58.0763 133.61 58.3117C133.756 58.4363 133.901 58.5747 134.046 58.6993C125.895 66.5486 116.006 73.1381 105.094 78.0179C98.4234 66.687 90.4519 56.6158 81.6985 48.4135C87.2343 46.5031 93.033 45.5341 99.0116 45.5341C99.8766 45.5341 100.735 45.5549 101.593 45.5964V45.6172ZM45.9166 94.817C51.2586 95.7169 56.7598 96.1668 62.3371 96.1668C75.1939 96.1668 88.4729 93.7995 101.164 89.1412C102.838 92.3598 104.416 95.6753 105.883 99.0808C105.143 99.33 104.409 99.5792 103.676 99.8492C85.0615 106.736 69.6374 118.995 59.6384 134.659C50.7673 124.906 45.7644 112.121 45.7644 98.8178C45.7644 97.4819 45.8197 96.146 45.9166 94.817ZM96.6589 152.025C96.4029 152.012 96.1469 151.991 95.8908 151.977C95.3649 151.949 94.8459 151.915 94.32 151.866C94.0156 151.839 93.718 151.804 93.4136 151.769C92.943 151.721 92.4656 151.665 91.995 151.603C91.6767 151.562 91.3584 151.513 91.0401 151.465C90.5903 151.396 90.1405 151.326 89.6907 151.243C89.3655 151.188 89.0403 151.126 88.722 151.056C88.2791 150.966 87.8432 150.876 87.4072 150.779C87.082 150.71 86.7637 150.634 86.4454 150.558C86.0095 150.454 85.5735 150.336 85.1445 150.226C84.8262 150.143 84.5148 150.053 84.2034 149.963C83.7675 149.838 83.3315 149.7 82.8956 149.561C82.5911 149.464 82.2936 149.374 81.9891 149.271C81.5393 149.118 81.0895 148.952 80.6467 148.793C80.3699 148.689 80.0862 148.592 79.8094 148.481C79.325 148.295 78.8406 148.094 78.3563 147.886C78.1279 147.789 77.8995 147.699 77.6712 147.602C76.9792 147.298 76.2942 146.979 75.616 146.647C75.6022 146.647 75.5884 146.633 75.5745 146.626C74.8756 146.287 74.1906 145.927 73.5055 145.554C73.3049 145.443 73.1042 145.318 72.8966 145.207C72.426 144.944 71.9555 144.674 71.4919 144.398C71.2428 144.245 70.9937 144.086 70.7446 143.927C70.3363 143.671 69.928 143.415 69.5267 143.145C69.2637 142.972 69.0008 142.785 68.7447 142.605C68.3642 142.342 67.9905 142.079 67.6168 141.802C67.347 141.608 67.084 141.407 66.8211 141.207C66.6204 141.054 66.4197 140.895 66.2191 140.736C75.1386 126.034 89.407 114.523 106.741 108.107C107.53 107.816 108.333 107.546 109.135 107.276C114.076 120.912 117.01 135.15 117.674 148.71C116.906 149.001 116.131 149.271 115.356 149.52C115.148 149.589 114.934 149.644 114.726 149.707C114.117 149.893 113.502 150.08 112.886 150.247C112.581 150.33 112.27 150.399 111.958 150.482C111.433 150.613 110.907 150.738 110.374 150.856C110.042 150.932 109.703 150.994 109.364 151.063C108.851 151.167 108.339 151.257 107.82 151.347C107.481 151.402 107.135 151.458 106.789 151.506C106.263 151.582 105.738 151.652 105.205 151.714C104.873 151.749 104.547 151.79 104.215 151.825C103.634 151.88 103.053 151.922 102.471 151.956C102.188 151.977 101.911 151.998 101.627 152.012C100.762 152.053 99.8904 152.081 99.0186 152.081C98.2297 152.081 97.4478 152.06 96.6658 152.025H96.6589Z" fill="white"/>
</svg>
