<svg id="visual" viewBox="0 0 900 320" width="900" height="320" xmlns="http://www.w3.org/2000/svg" xmlns:xlink="http://www.w3.org/1999/xlink" version="1.1"><rect x="0" y="0" width="900" height="320" fill="#141414"></rect><path d="M0 109L16.7 112.2C33.3 115.3 66.7 121.7 100 121.8C133.3 122 166.7 116 200 116C233.3 116 266.7 122 300 122.5C333.3 123 366.7 118 400 118.3C433.3 118.7 466.7 124.3 500 119.7C533.3 115 566.7 100 600 95.7C633.3 91.3 666.7 97.7 700 97.8C733.3 98 766.7 92 800 89.3C833.3 86.7 866.7 87.3 883.3 87.7L900 88L900 0L883.3 0C866.7 0 833.3 0 800 0C766.7 0 733.3 0 700 0C666.7 0 633.3 0 600 0C566.7 0 533.3 0 500 0C466.7 0 433.3 0 400 0C366.7 0 333.3 0 300 0C266.7 0 233.3 0 200 0C166.7 0 133.3 0 100 0C66.7 0 33.3 0 16.7 0L0 0Z" fill="#f1c40f"></path><path d="M0 67L16.7 70.7C33.3 74.3 66.7 81.7 100 85.8C133.3 90 166.7 91 200 87C233.3 83 266.7 74 300 70.7C333.3 67.3 366.7 69.7 400 70.7C433.3 71.7 466.7 71.3 500 75.2C533.3 79 566.7 87 600 90.2C633.3 93.3 666.7 91.7 700 90.5C733.3 89.3 766.7 88.7 800 87.5C833.3 86.3 866.7 84.7 883.3 83.8L900 83L900 0L883.3 0C866.7 0 833.3 0 800 0C766.7 0 733.3 0 700 0C666.7 0 633.3 0 600 0C566.7 0 533.3 0 500 0C466.7 0 433.3 0 400 0C366.7 0 333.3 0 300 0C266.7 0 233.3 0 200 0C166.7 0 133.3 0 100 0C66.7 0 33.3 0 16.7 0L0 0Z" fill="#f6a800"></path><path d="M0 47L16.7 52.5C33.3 58 66.7 69 100 68.8C133.3 68.7 166.7 57.3 200 56.7C233.3 56 266.7 66 300 71.3C333.3 76.7 366.7 77.3 400 78.5C433.3 79.7 466.7 81.3 500 81.2C533.3 81 566.7 79 600 78.2C633.3 77.3 666.7 77.7 700 73.7C733.3 69.7 766.7 61.3 800 56.3C833.3 51.3 866.7 49.7 883.3 48.8L900 48L900 0L883.3 0C866.7 0 833.3 0 800 0C766.7 0 733.3 0 700 0C666.7 0 633.3 0 600 0C566.7 0 533.3 0 500 0C466.7 0 433.3 0 400 0C366.7 0 333.3 0 300 0C266.7 0 233.3 0 200 0C166.7 0 133.3 0 100 0C66.7 0 33.3 0 16.7 0L0 0Z" fill="#f88b00"></path><path d="M0 51L16.7 47.7C33.3 44.3 66.7 37.7 100 37.2C133.3 36.7 166.7 42.3 200 45.8C233.3 49.3 266.7 50.7 300 49.5C333.3 48.3 366.7 44.7 400 44.3C433.3 44 466.7 47 500 46.3C533.3 45.7 566.7 41.3 600 43.3C633.3 45.3 666.7 53.7 700 56C733.3 58.3 766.7 54.7 800 53.2C833.3 51.7 866.7 52.3 883.3 52.7L900 53L900 0L883.3 0C866.7 0 833.3 0 800 0C766.7 0 733.3 0 700 0C666.7 0 633.3 0 600 0C566.7 0 533.3 0 500 0C466.7 0 433.3 0 400 0C366.7 0 333.3 0 300 0C266.7 0 233.3 0 200 0C166.7 0 133.3 0 100 0C66.7 0 33.3 0 16.7 0L0 0Z" fill="#f76b00"></path><path d="M0 39L16.7 35.3C33.3 31.7 66.7 24.3 100 22.7C133.3 21 166.7 25 200 27.2C233.3 29.3 266.7 29.7 300 29.8C333.3 30 366.7 30 400 30.7C433.3 31.3 466.7 32.7 500 30.5C533.3 28.3 566.7 22.7 600 20C633.3 17.3 666.7 17.7 700 21C733.3 24.3 766.7 30.7 800 31.8C833.3 33 866.7 29 883.3 27L900 25L900 0L883.3 0C866.7 0 833.3 0 800 0C766.7 0 733.3 0 700 0C666.7 0 633.3 0 600 0C566.7 0 533.3 0 500 0C466.7 0 433.3 0 400 0C366.7 0 333.3 0 300 0C266.7 0 233.3 0 200 0C166.7 0 133.3 0 100 0C66.7 0 33.3 0 16.7 0L0 0Z" fill="#f5430a"></path></svg>