<svg id="visual" viewBox="0 0 900 320" width="900" height="320" xmlns="http://www.w3.org/2000/svg" xmlns:xlink="http://www.w3.org/1999/xlink" version="1.1"><rect x="0" y="0" width="900" height="320" fill="#141414"></rect><path d="M0 118L16.7 117.8C33.3 117.7 66.7 117.3 100 115.3C133.3 113.3 166.7 109.7 200 112.2C233.3 114.7 266.7 123.3 300 128.7C333.3 134 366.7 136 400 131.2C433.3 126.3 466.7 114.7 500 114.8C533.3 115 566.7 127 600 131C633.3 135 666.7 131 700 122.8C733.3 114.7 766.7 102.3 800 99.7C833.3 97 866.7 104 883.3 107.5L900 111L900 0L883.3 0C866.7 0 833.3 0 800 0C766.7 0 733.3 0 700 0C666.7 0 633.3 0 600 0C566.7 0 533.3 0 500 0C466.7 0 433.3 0 400 0C366.7 0 333.3 0 300 0C266.7 0 233.3 0 200 0C166.7 0 133.3 0 100 0C66.7 0 33.3 0 16.7 0L0 0Z" fill="#f5430a"></path><path d="M0 109L16.7 101C33.3 93 66.7 77 100 79C133.3 81 166.7 101 200 108.3C233.3 115.7 266.7 110.3 300 105C333.3 99.7 366.7 94.3 400 87.5C433.3 80.7 466.7 72.3 500 71.2C533.3 70 566.7 76 600 81.3C633.3 86.7 666.7 91.3 700 90.3C733.3 89.3 766.7 82.7 800 80.2C833.3 77.7 866.7 79.3 883.3 80.2L900 81L900 0L883.3 0C866.7 0 833.3 0 800 0C766.7 0 733.3 0 700 0C666.7 0 633.3 0 600 0C566.7 0 533.3 0 500 0C466.7 0 433.3 0 400 0C366.7 0 333.3 0 300 0C266.7 0 233.3 0 200 0C166.7 0 133.3 0 100 0C66.7 0 33.3 0 16.7 0L0 0Z" fill="#f82f2c"></path><path d="M0 42L16.7 48.8C33.3 55.7 66.7 69.3 100 77.2C133.3 85 166.7 87 200 86.8C233.3 86.7 266.7 84.3 300 77C333.3 69.7 366.7 57.3 400 56.5C433.3 55.7 466.7 66.3 500 66.3C533.3 66.3 566.7 55.7 600 49.7C633.3 43.7 666.7 42.3 700 46.5C733.3 50.7 766.7 60.3 800 65.2C833.3 70 866.7 70 883.3 70L900 70L900 0L883.3 0C866.7 0 833.3 0 800 0C766.7 0 733.3 0 700 0C666.7 0 633.3 0 600 0C566.7 0 533.3 0 500 0C466.7 0 433.3 0 400 0C366.7 0 333.3 0 300 0C266.7 0 233.3 0 200 0C166.7 0 133.3 0 100 0C66.7 0 33.3 0 16.7 0L0 0Z" fill="#f71943"></path><path d="M0 20L16.7 24.5C33.3 29 66.7 38 100 41.7C133.3 45.3 166.7 43.7 200 43.8C233.3 44 266.7 46 300 43.7C333.3 41.3 366.7 34.7 400 34.7C433.3 34.7 466.7 41.3 500 42.8C533.3 44.3 566.7 40.7 600 38C633.3 35.3 666.7 33.7 700 33.5C733.3 33.3 766.7 34.7 800 33.5C833.3 32.3 866.7 28.7 883.3 26.8L900 25L900 0L883.3 0C866.7 0 833.3 0 800 0C766.7 0 733.3 0 700 0C666.7 0 633.3 0 600 0C566.7 0 533.3 0 500 0C466.7 0 433.3 0 400 0C366.7 0 333.3 0 300 0C266.7 0 233.3 0 200 0C166.7 0 133.3 0 100 0C66.7 0 33.3 0 16.7 0L0 0Z" fill="#f20057"></path></svg>