<svg id="visual" viewBox="0 0 900 320" width="900" height="320" xmlns="http://www.w3.org/2000/svg" xmlns:xlink="http://www.w3.org/1999/xlink" version="1.1"><path d="M0 55L13.7 55C27.3 55 54.7 55 82 53C109.3 51 136.7 47 163.8 46.5C191 46 218 49 245.2 45.7C272.3 42.3 299.7 32.7 327 30C354.3 27.3 381.7 31.7 409 37C436.3 42.3 463.7 48.7 491 47.7C518.3 46.7 545.7 38.3 573 36.8C600.3 35.3 627.7 40.7 654.8 44.8C682 49 709 52 736.2 50.8C763.3 49.7 790.7 44.3 818 41.7C845.3 39 872.7 39 886.3 39L900 39L900 0L886.3 0C872.7 0 845.3 0 818 0C790.7 0 763.3 0 736.2 0C709 0 682 0 654.8 0C627.7 0 600.3 0 573 0C545.7 0 518.3 0 491 0C463.7 0 436.3 0 409 0C381.7 0 354.3 0 327 0C299.7 0 272.3 0 245.2 0C218 0 191 0 163.8 0C136.7 0 109.3 0 82 0C54.7 0 27.3 0 13.7 0L0 0Z" fill="#141414"></path><path d="M0 113L13.7 112.5C27.3 112 54.7 111 82 111C109.3 111 136.7 112 163.8 110.3C191 108.7 218 104.3 245.2 102.7C272.3 101 299.7 102 327 104.2C354.3 106.3 381.7 109.7 409 113C436.3 116.3 463.7 119.7 491 120.7C518.3 121.7 545.7 120.3 573 117.7C600.3 115 627.7 111 654.8 111.7C682 112.3 709 117.7 736.2 117.7C763.3 117.7 790.7 112.3 818 104.3C845.3 96.3 872.7 85.7 886.3 80.3L900 75L900 37L886.3 37C872.7 37 845.3 37 818 39.7C790.7 42.3 763.3 47.7 736.2 48.8C709 50 682 47 654.8 42.8C627.7 38.7 600.3 33.3 573 34.8C545.7 36.3 518.3 44.7 491 45.7C463.7 46.7 436.3 40.3 409 35C381.7 29.7 354.3 25.3 327 28C299.7 30.7 272.3 40.3 245.2 43.7C218 47 191 44 163.8 44.5C136.7 45 109.3 49 82 51C54.7 53 27.3 53 13.7 53L0 53Z" fill="#131313"></path><path d="M0 174L13.7 183.5C27.3 193 54.7 212 82 213C109.3 214 136.7 197 163.8 188.5C191 180 218 180 245.2 185.3C272.3 190.7 299.7 201.3 327 204.5C354.3 207.7 381.7 203.3 409 202.3C436.3 201.3 463.7 203.7 491 210.2C518.3 216.7 545.7 227.3 573 224.2C600.3 221 627.7 204 654.8 198.7C682 193.3 709 199.7 736.2 200.7C763.3 201.7 790.7 197.3 818 188.8C845.3 180.3 872.7 167.7 886.3 161.3L900 155L900 73L886.3 78.3C872.7 83.7 845.3 94.3 818 102.3C790.7 110.3 763.3 115.7 736.2 115.7C709 115.7 682 110.3 654.8 109.7C627.7 109 600.3 113 573 115.7C545.7 118.3 518.3 119.7 491 118.7C463.7 117.7 436.3 114.3 409 111C381.7 107.7 354.3 104.3 327 102.2C299.7 100 272.3 99 245.2 100.7C218 102.3 191 106.7 163.8 108.3C136.7 110 109.3 109 82 109C54.7 109 27.3 110 13.7 110.5L0 111Z" fill="#111111"></path><path d="M0 215L13.7 223.7C27.3 232.3 54.7 249.7 82 249.2C109.3 248.7 136.7 230.3 163.8 220.7C191 211 218 210 245.2 220.2C272.3 230.3 299.7 251.7 327 254.8C354.3 258 381.7 243 409 239.3C436.3 235.7 463.7 243.3 491 249.2C518.3 255 545.7 259 573 256.8C600.3 254.7 627.7 246.3 654.8 245.3C682 244.3 709 250.7 736.2 248.5C763.3 246.3 790.7 235.7 818 222.8C845.3 210 872.7 195 886.3 187.5L900 180L900 153L886.3 159.3C872.7 165.7 845.3 178.3 818 186.8C790.7 195.3 763.3 199.7 736.2 198.7C709 197.7 682 191.3 654.8 196.7C627.7 202 600.3 219 573 222.2C545.7 225.3 518.3 214.7 491 208.2C463.7 201.7 436.3 199.3 409 200.3C381.7 201.3 354.3 205.7 327 202.5C299.7 199.3 272.3 188.7 245.2 183.3C218 178 191 178 163.8 186.5C136.7 195 109.3 212 82 211C54.7 210 27.3 191 13.7 181.5L0 172Z" fill="#101010"></path><path d="M0 321L13.7 321C27.3 321 54.7 321 82 321C109.3 321 136.7 321 163.8 321C191 321 218 321 245.2 321C272.3 321 299.7 321 327 321C354.3 321 381.7 321 409 321C436.3 321 463.7 321 491 321C518.3 321 545.7 321 573 321C600.3 321 627.7 321 654.8 321C682 321 709 321 736.2 321C763.3 321 790.7 321 818 321C845.3 321 872.7 321 886.3 321L900 321L900 178L886.3 185.5C872.7 193 845.3 208 818 220.8C790.7 233.7 763.3 244.3 736.2 246.5C709 248.7 682 242.3 654.8 243.3C627.7 244.3 600.3 252.7 573 254.8C545.7 257 518.3 253 491 247.2C463.7 241.3 436.3 233.7 409 237.3C381.7 241 354.3 256 327 252.8C299.7 249.7 272.3 228.3 245.2 218.2C218 208 191 209 163.8 218.7C136.7 228.3 109.3 246.7 82 247.2C54.7 247.7 27.3 230.3 13.7 221.7L0 213Z" fill="#0e0e0e"></path></svg>