<svg id="visual" viewBox="0 0 900 320" width="900" height="320" xmlns="http://www.w3.org/2000/svg" xmlns:xlink="http://www.w3.org/1999/xlink" version="1.1"><rect x="0" y="0" width="900" height="320" fill="#141414"></rect><path d="M0 206L25 205.5C50 205 100 204 150 195.7C200 187.3 250 171.7 300 163.5C350 155.3 400 154.7 450 157.8C500 161 550 168 600 184.8C650 201.7 700 228.3 750 234.2C800 240 850 225 875 217.5L900 210L900 321L875 321C850 321 800 321 750 321C700 321 650 321 600 321C550 321 500 321 450 321C400 321 350 321 300 321C250 321 200 321 150 321C100 321 50 321 25 321L0 321Z" fill="#f20057" stroke-linecap="round" stroke-linejoin="miter"></path></svg>