<svg id="visual" viewBox="0 0 900 320" width="900" height="320" xmlns="http://www.w3.org/2000/svg" xmlns:xlink="http://www.w3.org/1999/xlink" version="1.1"><rect x="0" y="0" width="900" height="320" fill="#141414"></rect><path d="M0 203L30 205C60 207 120 211 180 209C240 207 300 199 360 207.8C420 216.7 480 242.3 540 254.2C600 266 660 264 720 259.2C780 254.3 840 246.7 870 242.8L900 239L900 321L870 321C840 321 780 321 720 321C660 321 600 321 540 321C480 321 420 321 360 321C300 321 240 321 180 321C120 321 60 321 30 321L0 321Z" fill="#f5430a" stroke-linecap="round" stroke-linejoin="miter"></path></svg>